<!-- created by svgstack.com | Attribution is required. --><svg width="128" height="128" viewBox="0 0 128 128" fill="none" xmlns="http://www.w3.org/2000/svg"><path d="M123.756 27.1541C122.505 26.5294 121.967 27.7199 121.236 28.3243C120.986 28.5193 120.774 28.7726 120.563 29.0064C118.734 30.9963 116.598 32.3035 113.808 32.1473C109.729 31.9135 106.246 33.2204 103.167 36.3999C102.513 32.479 100.339 30.1371 97.0292 28.6359C95.2974 27.8557 93.5465 27.0748 92.334 25.3777C91.4874 24.1687 91.2564 22.8223 90.8332 21.4957C90.564 20.6964 90.2939 19.8767 89.3896 19.7397C88.4083 19.5836 88.0229 20.4221 87.6387 21.1252C86.0991 23.9931 85.5027 27.1532 85.5608 30.3521C85.6959 37.5512 88.6781 43.2858 94.605 47.3637C95.2784 47.832 95.4512 48.3 95.2402 48.9828C94.836 50.3877 94.3549 51.7529 93.9317 53.1578C93.6622 54.0553 93.2574 54.2503 92.3149 53.8603C89.0632 52.4757 86.2532 50.4266 83.7708 47.9496C79.5566 43.7939 75.747 39.2095 70.9938 35.6196C69.8939 34.7906 68.7642 34.0032 67.6071 33.2592C62.758 28.4603 68.2423 24.5191 69.5121 24.0514C70.8397 23.5633 69.9741 21.886 65.6824 21.9054C61.3913 21.9249 57.4657 23.3878 52.4631 25.3388C51.7316 25.6319 50.9623 25.8463 50.173 26.0212C45.6318 25.1432 40.9174 24.9482 35.9911 25.5137C26.7159 26.5667 19.3082 31.0345 13.8626 38.6624C7.32048 47.833 5.7806 58.2498 7.66653 69.1162C9.64843 80.5671 15.3825 90.0486 24.1957 97.4621C33.3359 105.147 43.8618 108.913 55.8686 108.191C63.1613 107.762 71.2821 106.768 80.4413 98.8661C82.7505 100.036 85.1747 100.505 89.1967 100.856C92.2949 101.149 95.2774 100.7 97.5866 100.213C101.204 99.4326 100.954 96.0183 99.6454 95.3945C89.0435 90.3618 91.3708 92.41 89.2545 90.7517C93.943 85.0987 100.701 79.2535 104.469 63.4192C105.372 59.6224 105.938 55.3802 105.938 51.4034C105.938 50.6068 106.111 50.2138 107.073 50.116C109.728 49.8034 112.307 49.063 114.674 47.7358C121.543 43.9121 124.314 37.6305 124.969 30.1004C125.065 28.9497 124.95 27.7585 123.756 27.1541ZM63.8934 94.9249C53.6175 86.6932 48.634 83.9808 46.5752 84.098C44.6511 84.2153 44.9972 86.4588 45.4205 87.9217C45.8628 89.3656 46.4408 90.3602 47.2486 91.6282C47.8066 92.4673 48.1917 93.7152 46.6909 94.6525C43.3814 96.7392 37.6276 93.95 37.3578 93.813C30.6616 89.7944 25.0619 84.4883 21.1169 77.2315C17.3072 70.2468 15.094 62.7565 14.7288 54.7578C14.6326 52.8268 15.1909 52.1431 17.0762 51.7927C19.5582 51.324 22.1175 51.2262 24.5999 51.5968C35.0868 53.1578 44.015 57.9373 51.5006 65.5063C55.7726 69.8171 59.0052 74.968 62.3348 80.0007C65.8753 85.3459 69.6853 90.4379 74.5344 94.6127C76.2471 96.0756 77.6129 97.1878 78.9217 98.0075C74.9767 98.4558 68.3955 98.5536 63.8934 94.9249ZM68.8635 62.2637C69.0263 61.5911 69.6203 61.0983 70.3396 61.0983C70.517 61.0987 70.6928 61.1317 70.8588 61.1955C71.0707 61.2738 71.263 61.3911 71.4171 61.566C71.6862 61.8396 71.8404 62.2296 71.8404 62.639C71.8404 63.4976 71.167 64.18 70.3205 64.18C69.9632 64.1834 69.6166 64.0552 69.3446 63.8191C69.0725 63.5831 68.8931 63.2549 68.8394 62.8948C68.8061 62.6849 68.8143 62.4703 68.8635 62.2637ZM83.6208 70.8385C82.8061 71.1558 81.9953 71.4049 81.2116 71.4374C79.7489 71.5151 78.1521 70.9105 77.2865 70.1691C75.9398 69.0184 74.9776 68.3751 74.5735 66.3649C74.4003 65.5063 74.4962 64.18 74.6504 63.4192C74.9967 61.7804 74.6116 60.7268 73.4768 59.7711C72.5534 58.9908 71.379 58.7764 70.0901 58.7764C69.609 58.7764 69.1667 58.562 68.8394 58.3865C68.3005 58.1138 67.8581 57.4307 68.2814 56.5916C68.4164 56.3189 69.0707 55.6552 69.2248 55.5386C70.9754 54.5239 72.9964 54.8556 74.8623 55.6164C76.5941 56.3383 77.903 57.6646 79.7886 59.5372C81.7127 61.7998 82.059 62.4246 83.1563 64.1217C84.0225 65.448 84.8112 66.8141 85.3501 68.3742C85.6243 69.1901 85.3723 69.8843 84.6183 70.374C84.3116 70.5731 83.959 70.7066 83.6208 70.8385Z" fill="#4D6BFE"/></svg> 